<?xml version="1.0" encoding="UTF-8" standalone="no"?>
<!-- Created with Inkscape (http://www.inkscape.org/) -->

<svg
   xmlns:dc="http://purl.org/dc/elements/1.1/"
   xmlns:cc="http://creativecommons.org/ns#"
   xmlns:rdf="http://www.w3.org/1999/02/22-rdf-syntax-ns#"
   xmlns:svg="http://www.w3.org/2000/svg"
   xmlns="http://www.w3.org/2000/svg"
   xmlns:sodipodi="http://sodipodi.sourceforge.net/DTD/sodipodi-0.dtd"
   xmlns:inkscape="http://www.inkscape.org/namespaces/inkscape"
   width="525mm"
   height="575mm"
   viewBox="0 0 1860.2362 2037.4016"
   id="svg14115"
   version="1.1"
   inkscape:version="0.91 r13725"
   sodipodi:docname="veganisolatedicons4.svg">
  <defs
     id="defs14117" />
  <sodipodi:namedview
     id="base"
     pagecolor="#ffffff"
     bordercolor="#666666"
     borderopacity="1.0"
     inkscape:pageopacity="0.0"
     inkscape:pageshadow="2"
     inkscape:zoom="0.18473111"
     inkscape:cx="612.7213"
     inkscape:cy="1740.8807"
     inkscape:document-units="px"
     inkscape:current-layer="g15556"
     showgrid="false"
     fit-margin-top="0"
     fit-margin-left="0"
     fit-margin-right="0"
     fit-margin-bottom="0"
     inkscape:window-width="1916"
     inkscape:window-height="1035"
     inkscape:window-x="4"
     inkscape:window-y="1"
     inkscape:window-maximized="1" />
  <metadata
     id="metadata14120">
    <rdf:RDF>
      <cc:Work
         rdf:about="">
        <dc:format>image/svg+xml</dc:format>
        <dc:type
           rdf:resource="http://purl.org/dc/dcmitype/StillImage" />
        <dc:title></dc:title>
      </cc:Work>
    </rdf:RDF>
  </metadata>
  <g
     inkscape:label="Layer 1"
     inkscape:groupmode="layer"
     id="layer1"
     transform="translate(681.21601,1075.1218)">
    <g
       id="g15383"
       transform="translate(-1987.3725,-878.86444)">
      <g
         id="g15556"
         transform="translate(24,-2)">
        <g
           id="g15588">
          <path
             style="fill:#f35e5e;fill-opacity:1;fill-rule:evenodd;stroke:none;stroke-width:1px;stroke-linecap:butt;stroke-linejoin:miter;stroke-opacity:1"
             d="m 2058.0031,462.10927 -63.5675,-162.45048 -353.1532,-14.12613 -268.3965,247.20725 14.1261,480.28839 240.1442,353.1532 120.0721,268.3964 49.4415,120.0721 77.6937,21.1892 183.6396,7.0631 247.2073,14.1261 70.6306,-70.6306 21.1892,56.5045 211.892,-14.1261 49.4414,-148.3244 148.3244,-240.1442 240.1441,-444.97302 21.1892,-303.71177 -105.9459,-218.95499 -162.4505,-91.81984 -233.0811,0 -218.955,113.00903 -127.1352,84.75677 -105.9459,-7.06306 z"
             id="path15552"
             inkscape:connector-curvature="0" />
          <path
             style="fill:#92e55b;fill-opacity:1;fill-rule:evenodd;stroke:none;stroke-width:1px;stroke-linecap:butt;stroke-linejoin:miter;stroke-opacity:1"
             d="m 2587.733,-131.18816 -28.2523,113.00905 -275.4595,70.63065 -197.7658,120.07209 -35.3153,134.19822 56.5045,190.70274 134.1982,-21.18919 261.3334,-134.19823 190.7027,-35.31532 70.6307,-162.45048 -42.3784,-162.45048 -70.6306,-70.63064 z"
             id="path15554"
             inkscape:connector-curvature="0" />
          <path
             sodipodi:nodetypes="ccccsccsccccccccscccsccsscccscccscccscccscsccsccccccccccccsccsscccccsccscccccccccssccccccccssccccccccccsccccccccccccscccccscccscccccccscscccccccccsssssscsccccscccscccccsscsccscsccccssscssscsscc"
             id="path15127"
             d="m 2519.8859,-177.07643 c 147.4965,0 230.5936,109.692172 285.7931,224.724945 19.1358,87.302175 2.6986,155.108985 -42.7752,228.965585 52.4657,0 124.3302,28.75819 215.6284,86.21669 93.5236,94.23482 140.3293,209.67284 140.3293,346.28511 0,274.19427 -114.0965,527.1998 -342.2543,758.9876 -31.9455,57.4875 -61.6131,151.2302 -88.985,281.2717 -73.5117,91.0218 -142.2744,80.5576 -217.3282,80.5576 -43.371,0 -80.4335,-5.659 -111.2401,-16.9625 -91.9114,41.0604 -201.3291,32.1449 -299.479,5.659 -205.4822,35.7922 -322.5927,5.3117 -347.3886,-166.7744 0,-86.6798 -65.0302,-199.7587 -195.0907,-339.2222 -266.482,-362.55294 -342.9201,-914.97946 145.4637,-1041.67761 110.8721,-27.09378 218.1694,-33.11462 328.5683,0 83.0445,-222.00399 211.4753,-263.0354329 501.4039,-315.182272 33.8557,-66.518698 27.3544,-52.523142 27.3544,-132.849248 z m -1114.0654,908.8139 c 0,229.92083 90.7024,442.38703 272.0896,637.44193 62.7346,58.4427 113.5181,177.6148 152.2979,357.5887 36.0637,31.4212 96.2048,28.2661 138.612,28.2661 -22.8333,-49.9325 -34.2237,-88.0982 -34.2237,-114.4828 0,-59.4847 -7.097,-57.1111 27.3895,-74.9132 40.5322,0 42.267,-5.1524 63.3129,22.6216 l 0,33.9251 c 0,96.1164 58.1785,144.1673 174.553,144.1673 125.4868,0 188.2389,-51.814 188.2389,-155.4708 l -6.8517,-11.3036 c 5.6952,-16.0073 17.1206,-27.3253 34.2236,-33.9251 55.5325,0 61.6132,11.2023 61.6132,56.5322 0,49.0062 -13.686,93.2796 -41.0754,132.8638 72.3901,0 181.4047,12.2732 181.4047,-114.4828 7.9732,-81.0353 61.0173,-184.6632 159.1497,-310.9417 163.1451,-172.4333 244.7176,-371.72892 244.7176,-597.87225 0,-196.61805 -44.8956,-328.4397 -272.0895,-380.21024 -94.5927,0 -178.636,-18.80065 -410.7191,155.47082 -31.9456,19.78482 -85.0072,33.46197 -159.1497,40.98802 -163.1626,-21.66634 -244.7177,-60.29523 -244.7177,-115.90116 0,-26.37012 16.5248,-39.56965 49.627,-39.56965 9.1298,3.77749 15.964,5.65901 20.5377,5.65901 0,-42.4064 -27.9677,-63.6096 -83.8506,-63.6096 -17.1206,-3.74855 -38.2366,-5.65901 -63.3129,-5.65901 -102.5309,0 -326.8335,-17.38228 -431.2393,247.34652 -23.0085,38.00655 -20.5377,113.1802 -20.5377,155.47081 z m 340.5544,5.64454 c 19.5564,2.02624 13.686,-14.63238 13.686,310.94169 -73.5818,0 -82.1508,3.7196 -82.1508,-12.722 l 0,-206.35847 -49.627,5.65901 -6.8517,-11.30354 0,-35.32902 70.1646,-33.92511 c 0.017,-21.34793 10.9523,-16.96256 54.7789,-16.96256 z m 29.0893,419.77989 47.9096,0 c 0,14.4732 20.5377,112.6013 20.5377,131.4454 l 13.686,0 c 0,-25.9794 14.86,-95.8269 22.255,-131.4454 l 47.9096,0 c -30.8065,130.027 -51.9225,195.055 -63.3129,195.055 -34.837,0 -44.3699,26.0951 -88.985,-195.055 z m 138.612,-419.77989 c 69.5688,4.73273 104.3883,33.46197 104.3883,86.21669 l 0,138.50827 c 0,46.16943 -30.2458,74.91313 -90.7024,86.21673 l -54.7614,0 c -87.6883,-38.8171 -70.1646,-77.59072 -70.1646,-230.38401 0.017,-65.15823 43.9843,-80.55768 111.2401,-80.55768 z m -20.5378,63.60959 c 0,174.27148 -5.1694,178.0924 13.686,178.0924 28.3007,0 20.5377,11.12987 20.5377,-178.0924 z m 131.7778,350.5258 c 46.7706,0 70.1647,32.5067 70.1647,97.5202 l -13.686,5.659 -83.8506,0 c 0,58.4427 -6.0106,56.5033 20.5377,69.2541 l 6.8517,0 27.3895,-40.988 35.941,0 0,24.0255 c -11.3378,56.2138 -55.7252,50.8877 -90.7024,50.8877 -60.8596,-20.7835 -49.6269,-67.8068 -49.6269,-149.8263 0,-37.6737 25.6371,-56.5322 76.9813,-56.5322 z m -27.3894,50.8732 0,29.6844 41.0754,0 c 0,-33.7803 4.7314,-34.4606 -20.5377,-46.647 -6.8342,0.014 -13.686,5.659 -20.5377,16.9626 z m 152.3155,-465.00859 c 78.7161,4.73273 118.0742,27.80296 118.0742,69.25413 -4.0461,107.66188 0.053,31.82335 0,148.40792 -15.0002,102.00694 -78.2605,93.27964 -118.0742,93.27964 -65.0303,0 -97.5366,-28.7293 -97.5366,-86.21673 l 0,-144.16728 c -0.018,-53.69547 32.5063,-80.55768 97.5366,-80.55768 z m 453.4942,-805.634658 c 0,38.64337 -37.08,73.4947682 -111.24,104.597615 -273.8069,39.569653 -410.7191,135.222853 -410.7191,286.916163 29.65,96.11634 59.3,144.16727 88.985,144.16727 37.413,-69.09492 53.377,-92.70067 -54.7613,-202.11785 0,-14.47317 -2.4709,-18.7717 20.5377,-28.2661 17.5411,0 7.4125,-0.98418 49.6269,5.65901 18.2421,-22.62157 34.2237,-33.92512 47.9096,-33.92512 42.197,18.85854 63.313,58.89134 63.313,120.1418 0,39.07757 5.1344,40.30779 -29.0893,120.14181 11.3904,0 67.3083,-36.2553 167.7013,-108.83826 165.4757,-70.68697 187.7307,-63.60959 222.4626,-63.60959 109.9608,-152.18541 71.181,-258.953998 -54.7264,-344.866748 z m -397.0156,1219.770048 34.2237,16.9625 c 18.2421,-11.3035 32.5064,-16.9625 42.7752,-16.9625 l 6.8518,11.3035 c 0,13.9956 4.854,20.2625 -35.941,28.2661 l 6.8517,11.3036 c 0,42.5656 12.9149,98.9386 -104.3883,98.9386 l 0,11.3035 c 88.985,4.7328 133.4776,21.6953 133.4776,50.8877 0,29.2213 -25.6722,46.647 -77.0164,52.2916 -30.1057,0 -100.06,2.5038 -111.2401,-28.2661 0,-12.2299 9.1298,-27.7741 27.3894,-46.6471 -9.1473,-9.4075 -13.6859,-16.9625 -13.6859,-22.6215 l 20.5377,-35.329 c -22.5529,-31.0305 -20.5377,-52.8271 -20.5377,-67.8503 0,-42.3774 30.2107,-63.5806 90.7023,-63.5806 z m -63.3304,-350.5258 c -0.3204,66.3943 -14.7933,115.01495 0,178.0924 18.2246,0 35.941,3.11173 35.941,-11.30355 0,-187.1526 10.8997,-166.78885 -35.941,-166.78885 z m 13.7035,545.5662 c -7.8856,32.5502 -6.8517,25.2268 -6.8517,35.3291 81.8354,0 90.7023,4.1103 90.7023,-12.722 -9.4628,-24.8793 -55.0417,-22.6071 -83.8506,-22.6071 z m 0,-125.7863 c 4.5386,30.1621 16.5248,45.2287 35.941,45.2287 40.5672,-4.1828 33.5928,-86.2167 -6.8518,-86.2167 -11.4254,0 -21.1335,13.6627 -29.0892,40.988 z m 201.9249,-69.2541 c 114.9726,0 60.0535,63.1464 83.8506,200.6995 -36.2389,0 -47.9096,4.1827 -47.9096,-16.9626 l -6.8518,0 c -54.2531,39.8446 -79.347,25.603 -97.5365,-22.6216 12.5469,-53.7099 45.0532,-80.5577 97.5365,-80.5577 0,-48.9916 4.6088,-46.647 -29.0892,-46.647 l -27.3894,29.6845 -27.3895,0 -13.686,-7.0629 c 10.2864,-37.6737 33.0847,-56.5322 68.4649,-56.5322 z m 42.7752,-436.74249 c 50.1877,0 75.2991,24.51756 75.2991,73.49477 0,71.55537 15.4558,155.47083 -88.9851,155.47083 -104.3182,0 -90.7023,-74.10265 -90.7023,-166.77437 0,-41.45117 34.8019,-62.19123 104.3883,-62.19123 z m -63.3129,586.55429 c 11.2502,24.778 18.0493,22.6215 27.3894,22.6215 6.8518,0 14.2468,-5.659 22.2551,-16.9625 l 0,-46.647 c -14.8601,0 -31.4024,13.6771 -49.6445,40.988 z m 27.3894,-419.77992 c 3.4697,11.4917 10.2163,11.30355 22.2551,11.30355 5.6952,0 12.5469,-5.65902 20.5377,-16.96256 0,-127.37839 7.6929,-115.90117 -27.3895,-115.90117 -20.5552,1.91046 -15.4033,0.50657 -15.4033,121.56018 z m 208.7767,-172.43338 63.3129,0 0,5.65901 c -77.5947,214.83977 -121.5089,326.02269 -131.7778,333.56319 l -63.3129,0 0,-7.0629 c 73.0035,-221.42506 116.9353,-332.1593 131.7778,-332.1593 z m 22.2375,442.4015 c 6.8517,0 15.964,7.555 27.3894,22.6215 l 0,166.7744 c 0,14.4732 -13.1427,11.3036 -49.6269,11.3036 0,-161.043 1.9451,-128.6521 -6.8517,-166.7744 -27.3895,2.8223 -41.0755,8.4813 -41.0755,16.9625 l 0,149.8263 c -33.9082,0 -49.6269,3.1697 -49.6269,-11.3035 l 0,-183.7369 49.6269,0 0,11.3035 6.8518,0 c 18.2246,-11.3325 39.3581,-16.977 63.3129,-16.977 z m 90.7024,-333.56324 c 59.3,0 88.985,23.09918 88.985,69.25413 0,103.30952 13.5633,129.37571 -54.7614,161.12981 l -49.6269,0 c -86.7596,0 -75.2991,-87.47582 -75.2991,-155.4708 0,-49.94692 30.2107,-74.91314 90.7024,-74.91314 z m -22.2551,166.77438 c 4.083,13.53241 12.3542,11.30354 29.0893,11.30354 18.2596,0 13.6859,-2.54727 13.6859,-120.14181 0,-14.74817 -11.5656,-12.72192 -29.0892,-12.72192 -18.8029,3.92223 -13.686,4.45774 -13.686,121.56019 z"
             inkscape:connector-curvature="0" />
        </g>
      </g>
    </g>
  </g>
</svg>
